<svg width="28" height="16" viewBox="0 0 28 16" fill="none" xmlns="http://www.w3.org/2000/svg">
<path d="M27.3843 2.88437L14.8843 15.3844C14.7682 15.5006 14.6304 15.5928 14.4786 15.6557C14.3269 15.7186 14.1642 15.751 14 15.751C13.8357 15.751 13.673 15.7186 13.5213 15.6557C13.3695 15.5928 13.2317 15.5006 13.1156 15.3844L0.615588 2.88437C0.381037 2.64982 0.249268 2.3317 0.249268 1.99999C0.249268 1.66829 0.381037 1.35017 0.615588 1.11562C0.850138 0.881067 1.16826 0.749298 1.49996 0.749298C1.83167 0.749298 2.14979 0.881067 2.38434 1.11562L14 12.7328L25.6156 1.11562C25.7317 0.99948 25.8696 0.907354 26.0213 0.844501C26.1731 0.781648 26.3357 0.749298 26.5 0.749298C26.6642 0.749298 26.8268 0.781648 26.9786 0.844501C27.1303 0.907354 27.2682 0.99948 27.3843 1.11562C27.5005 1.23176 27.5926 1.36963 27.6555 1.52137C27.7183 1.67311 27.7507 1.83575 27.7507 1.99999C27.7507 2.16424 27.7183 2.32687 27.6555 2.47861C27.5926 2.63035 27.5005 2.76823 27.3843 2.88437Z" fill="black"/>
</svg>
