<svg width="33" height="33" viewBox="0 0 33 33" fill="none" xmlns="http://www.w3.org/2000/svg">
<path d="M17.8577 16.3747L26.1368 8.09552L26.3136 7.91874L26.1368 7.74196L24.8536 6.45878L24.6768 6.28199L24.5001 6.45879L16.25 14.7099L8.00001 6.45879L7.82323 6.28199L7.64644 6.45878L6.36326 7.74196L6.18649 7.91874L6.36326 8.09552L14.6424 16.3747L6.36327 24.6538L6.18649 24.8306L6.36327 25.0074L7.64645 26.2905L7.82324 26.4673L8.00001 26.2905L16.25 18.0394L24.5001 26.2905L24.6768 26.4673L24.8536 26.2905L26.1368 25.0074L26.3136 24.8306L26.1368 24.6538L17.8577 16.3747Z" fill="#292929" stroke="#292929" stroke-width="0.5"/>
</svg>
