<svg width="40" height="40" viewBox="0 0 40 40" fill="none" xmlns="http://www.w3.org/2000/svg">
<path d="M28.75 10H6.25C5.91848 10 5.60054 10.1317 5.36612 10.3661C5.1317 10.6005 5 10.9185 5 11.25V33.75C5 34.0815 5.1317 34.3995 5.36612 34.6339C5.60054 34.8683 5.91848 35 6.25 35H28.75C29.0815 35 29.3995 34.8683 29.6339 34.6339C29.8683 34.3995 30 34.0815 30 33.75V11.25C30 10.9185 29.8683 10.6005 29.6339 10.3661C29.3995 10.1317 29.0815 10 28.75 10ZM27.5 32.5H7.5V12.5H27.5V32.5ZM35 6.25V28.75C35 29.0815 34.8683 29.3995 34.6339 29.6339C34.3995 29.8683 34.0815 30 33.75 30C33.4185 30 33.1005 29.8683 32.8661 29.6339C32.6317 29.3995 32.5 29.0815 32.5 28.75V7.5H11.25C10.9185 7.5 10.6005 7.3683 10.3661 7.13388C10.1317 6.89946 10 6.58152 10 6.25C10 5.91848 10.1317 5.60054 10.3661 5.36612C10.6005 5.1317 10.9185 5 11.25 5H33.75C34.0815 5 34.3995 5.1317 34.6339 5.36612C34.8683 5.60054 35 5.91848 35 6.25Z" fill="black"/>
</svg>
