<svg width="33" height="33" viewBox="0 0 33 33" fill="none" xmlns="http://www.w3.org/2000/svg">
<path d="M17.2067 18.5993C17.0938 18.6223 16.9923 18.6837 16.9194 18.773C16.8465 18.8623 16.8067 18.974 16.8067 19.0893V21.1648C16.6176 21.1648 16.3416 21.1648 16.1427 21.1648C15.9438 21.1648 15.4775 21.1648 15.3067 21.1648V18.0038C15.3068 17.814 15.3788 17.6312 15.5082 17.4924C15.6377 17.3536 15.8149 17.2691 16.0042 17.2558C16.8932 17.1938 18.2007 16.8908 19.2617 16.2143C20.2972 15.5533 21.0567 14.5718 21.0567 13.0873C21.0567 11.6573 20.5262 10.6658 19.7557 10.0083C18.9667 9.33477 17.8687 8.96577 16.6897 8.91977C14.2492 8.82427 12.081 10.1017 11.5387 12.0218C11.3496 12.6914 11.3922 12.5648 11.3496 12.7539C11.1652 12.7161 10.8371 12.6334 10.643 12.59C10.4488 12.5466 10.6117 12.5861 9.94336 12.4141C9.98242 12.2071 10.0313 11.8884 10.0747 11.6943C10.4077 10.2073 11.3682 9.11877 12.6117 8.40627C13.8617 7.68977 15.3772 7.36727 16.7487 7.42127C18.1827 7.47727 19.6287 7.92777 20.7297 8.86727C21.8497 9.82327 22.5567 11.2393 22.5567 13.0873C22.5567 15.2063 21.4217 16.6153 20.0687 17.4788C19.1527 18.0633 18.1182 18.4143 17.2067 18.5993ZM15.3067 24.6648C15.3067 24.2669 15.3067 24.3246 15.3067 23.9116C15.6288 23.9116 15.7449 23.9116 16.1427 23.9116C16.5405 23.9116 16.4303 23.9116 16.8067 23.9116C16.8067 23.9116 16.8067 24.2669 16.8067 24.6648C16.8067 25.0626 16.8067 25.0665 16.8067 25.3339C16.8067 25.3339 16.5405 25.3339 16.1427 25.3339C15.7449 25.3339 15.6288 25.3339 15.3067 25.3339C15.3067 25.3339 15.3067 25.0626 15.3067 24.6648Z" fill="#292929" stroke="#292929" stroke-linecap="round" stroke-linejoin="round"/>
</svg>
