<svg width="16" height="12" viewBox="0 0 16 12" fill="none" xmlns="http://www.w3.org/2000/svg">
<path d="M15.7845 1.09118L5.56307 11.3126C5.50373 11.372 5.43328 11.4192 5.35572 11.4513C5.27817 11.4835 5.19504 11.5 5.11108 11.5C5.02713 11.5 4.944 11.4835 4.86645 11.4513C4.78889 11.4192 4.71844 11.372 4.6591 11.3126L0.187216 6.84075C0.0673437 6.72087 0 6.55829 0 6.38877C0 6.21924 0.0673437 6.05666 0.187216 5.93679C0.307089 5.81691 0.469671 5.74957 0.639196 5.74957C0.808722 5.74957 0.971304 5.81691 1.09118 5.93679L5.11108 9.95749L14.8806 0.187216C15.0004 0.0673434 15.163 -1.26306e-09 15.3325 0C15.5021 1.26306e-09 15.6647 0.0673434 15.7845 0.187216C15.9044 0.307089 15.9717 0.469671 15.9717 0.639196C15.9717 0.808722 15.9044 0.971304 15.7845 1.09118Z" fill="black"/>
</svg>
